<!-- icon666.com - MILLIONS vector ICONS FREE --><svg version="1.1" id="Capa_1" xmlns="http://www.w3.org/2000/svg" xmlns:xlink="http://www.w3.org/1999/xlink" x="0px" y="0px" viewBox="0 0 512 512" style="enable-background:new 0 0 512 512;" xml:space="preserve"><g><g><circle cx="288" cy="96" r="10.667"/></g></g><g><g><circle cx="224" cy="96" r="10.667"/></g></g><g><g><rect x="213.333" y="298.667" width="85.333" height="42.667"/></g></g><g><g><path d="M425.195,342.848l-13.931-78.123c-3.669-25.707-23.744-45.845-48.597-50.411v-11.648c0-5.888-4.779-10.667-10.667-10.667 h-32.661c26.133-19.456,43.328-50.325,43.328-85.333C362.667,47.851,314.816,0,256,0S149.333,47.851,149.333,106.667 c0,35.008,17.195,65.877,43.328,85.333H160c-5.888,0-10.667,4.779-10.667,10.667v11.648 c-24.853,4.544-44.907,24.661-48.533,50.048l-13.995,78.485C73.664,346.816,64,358.912,64,373.333 C64,379.221,68.779,384,74.667,384s10.667-4.779,10.667-10.667c0-5.888,4.779-10.667,10.667-10.667s10.667,4.779,10.667,10.667 c0,5.888,4.779,10.667,10.667,10.667S128,379.221,128,373.333c0-13.291-8.149-24.704-19.712-29.525l13.568-76.053 c2.176-15.211,13.291-27.243,27.477-31.403v158.315c0,5.888,4.779,10.667,10.667,10.667h10.667v85.333H160 c-5.888,0-10.667,4.779-10.667,10.667c0,5.888,4.779,10.667,10.667,10.667h21.333H224h64h42.667H352 c5.888,0,10.667-4.779,10.667-10.667c0-5.888-4.779-10.667-10.667-10.667h-10.667v-85.333H352c5.888,0,10.667-4.779,10.667-10.667 V236.352c14.187,4.16,25.323,16.277,27.541,31.765l13.504,75.691C392.149,348.629,384,360.043,384,373.333 c0,5.888,4.779,10.667,10.667,10.667s10.667-4.779,10.667-10.667c0-5.888,4.779-10.667,10.667-10.667 c5.888,0,10.667,4.779,10.667,10.667c0,5.888,4.779,10.667,10.667,10.667c5.888,0,10.667-4.779,10.667-10.667 C448,358.912,438.336,346.816,425.195,342.848z M192,96c0-17.643,14.357-32,32-32s32,14.357,32,32c0-17.643,14.357-32,32-32 s32,14.357,32,32s-14.357,32-32,32s-32-14.357-32-32c0,17.643-14.357,32-32,32S192,113.643,192,96z M298.667,160 c0,5.888-4.779,10.667-10.667,10.667h-64c-5.888,0-10.667-4.779-10.667-10.667s4.779-10.667,10.667-10.667h64 C293.888,149.333,298.667,154.112,298.667,160z M202.667,234.667c5.888,0,10.667,4.779,10.667,10.667S208.555,256,202.667,256 S192,251.221,192,245.333S196.779,234.667,202.667,234.667z M277.333,490.667h-42.667v-85.333h42.667V490.667z M320,352 c0,5.888-4.779,10.667-10.667,10.667H202.667c-5.888,0-10.667-4.779-10.667-10.667v-64c0-5.888,4.779-10.667,10.667-10.667 h106.667c5.888,0,10.667,4.779,10.667,10.667V352z M309.333,256h-64c-5.888,0-10.667-4.779-10.667-10.667 s4.779-10.667,10.667-10.667h64c5.888,0,10.667,4.779,10.667,10.667S315.221,256,309.333,256z"/></g></g><g><g><path d="M373.333,85.333c-5.888,0-10.667,4.779-10.667,10.667v10.667v10.667c0,5.888,4.779,10.667,10.667,10.667 c5.888,0,10.667-4.779,10.667-10.667V96C384,90.112,379.221,85.333,373.333,85.333z"/></g></g><g><g><path d="M138.667,85.333C132.779,85.333,128,90.112,128,96v21.333c0,5.888,4.779,10.667,10.667,10.667s10.667-4.779,10.667-10.667 v-10.667V96C149.333,90.112,144.555,85.333,138.667,85.333z"/></g></g></svg>
